<?xml version="1.0" encoding="iso-8859-1"?>
<!-- Generator: Adobe Illustrator 19.0.0, SVG Export Plug-In . SVG Version: 6.00 Build 0)  -->
<svg version="1.1" id="Capa_1" xmlns="http://www.w3.org/2000/svg" xmlns:xlink="http://www.w3.org/1999/xlink" x="0px" y="0px"
	 viewBox="0 0 369.871 369.871" style="enable-background:new 0 0 369.871 369.871;" xml:space="preserve">
<g>
	<g id="Dibujo_31_">
		<g>
			<path d="M295.653,180.453c5.217-10.572,7.972-22.198,7.972-34.161c0-42.619-34.669-77.288-77.288-77.288
				c-25.4,0-49.105,12.592-63.464,33.239c-0.927-0.028-1.844-0.116-2.777-0.116c-42.309,0-78.497,27.669-90.051,67.262
				c-3.18-0.58-6.52-1.016-9.319-1.016C27.244,168.374,0,195.618,0,229.1s27.244,60.726,60.726,60.726
				c6.095,0,11.041-4.946,11.041-11.041s-4.946-11.041-11.041-11.041c-21.304,0-38.644-17.34-38.644-38.644
				s17.34-38.644,38.644-38.644c1.529,0,3.991,0.375,6.586,0.894v10.147c0,6.095,4.946,11.041,11.041,11.041
				s11.041-4.946,11.041-11.041v-17.771c5.924-34.52,35.53-59.517,70.702-59.517c35.166,0,64.773,24.997,70.702,59.523v17.765
				c0,6.095,4.941,11.041,11.041,11.041s11.041-4.946,11.041-11.041V191.35c2.595-0.519,5.057-0.894,6.586-0.894
				c21.304,0,38.644,17.34,38.644,38.644s-17.34,38.644-38.644,38.644c-6.095,0-11.041,4.946-11.041,11.041
				s4.946,11.041,11.041,11.041c33.482,0,60.726-27.244,60.726-60.726C320.192,209.187,310.509,191.527,295.653,180.453z
				 M250.142,169.39c-8.877-30.424-32.323-53.743-61.891-62.94c10.147-9.677,23.716-15.364,38.086-15.364
				c30.44,0,55.205,24.765,55.205,55.205c0,8.551-1.987,16.843-5.714,24.384c-5.217-1.463-10.688-2.302-16.363-2.302
				C256.661,168.374,253.327,168.81,250.142,169.39z"/>
			<path d="M226.337,46.922c6.095,0,11.041-4.946,11.041-11.041V13.799c0-6.095-4.946-11.041-11.041-11.041
				c-6.1,0-11.041,4.946-11.041,11.041v22.082C215.296,41.975,220.237,46.922,226.337,46.922z"/>
			<path d="M358.83,135.251h-22.082c-6.1,0-11.041,4.946-11.041,11.041s4.941,11.041,11.041,11.041h22.082
				c6.095,0,11.041-4.946,11.041-11.041S364.925,135.251,358.83,135.251z"/>
			<path d="M304.414,79.256c2.827,0,5.648-1.077,7.806-3.235l15.612-15.612c4.312-4.312,4.312-11.301,0-15.612
				c-4.312-4.312-11.301-4.312-15.612,0l-15.612,15.612c-4.312,4.312-4.312,11.301,0,15.612
				C298.761,78.179,301.588,79.256,304.414,79.256z"/>
			<path d="M140.459,76.021c2.159,2.159,4.98,3.235,7.806,3.235s5.648-1.077,7.806-3.235c4.312-4.312,4.312-11.301,0-15.612
				l-15.612-15.612c-4.312-4.312-11.301-4.312-15.612,0c-4.312,4.312-4.312,11.301,0,15.612L140.459,76.021z"/>
			<path d="M147.575,292.388c-3.058-5.278-9.788-7.099-15.082-4.047c-5.278,3.053-7.088,9.799-4.041,15.082l5.521,9.562
				c2.048,3.544,5.758,5.521,9.573,5.521c1.871,0,3.771-0.475,5.51-1.479c5.278-3.053,7.088-9.799,4.041-15.082L147.575,292.388z"/>
			<path d="M119.973,244.58c-3.058-5.283-9.793-7.094-15.082-4.041c-5.278,3.053-7.088,9.799-4.041,15.082l5.521,9.562
				c2.048,3.544,5.758,5.521,9.573,5.521c1.871,0,3.771-0.475,5.51-1.474c5.278-3.053,7.088-9.799,4.041-15.088L119.973,244.58z"/>
			<path d="M132.493,269.229c1.739,1.005,3.638,1.474,5.51,1.474c3.815,0,7.524-1.976,9.573-5.521l5.521-9.562
				c3.047-5.283,1.237-12.035-4.041-15.082c-5.3-3.053-12.035-1.242-15.082,4.041l-5.521,9.562
				C125.405,259.424,127.215,266.176,132.493,269.229z"/>
			<path d="M121.452,288.341c-5.3-3.058-12.035-1.237-15.082,4.047l-5.521,9.562c-3.047,5.283-1.237,12.035,4.041,15.082
				c1.739,1.005,3.638,1.479,5.51,1.479c3.815,0,7.524-1.976,9.573-5.521l5.521-9.562
				C128.54,298.145,126.73,291.394,121.452,288.341z"/>
			<path d="M115.932,278.785c0-6.095-4.946-11.041-11.041-11.041H93.849c-6.1,0-11.041,4.946-11.041,11.041
				s4.941,11.041,11.041,11.041h11.041C110.985,289.826,115.932,284.88,115.932,278.785z"/>
			<path d="M171.137,278.785c0-6.095-4.946-11.041-11.041-11.041h-11.041c-6.1,0-11.041,4.946-11.041,11.041
				s4.941,11.041,11.041,11.041h11.041C166.191,289.826,171.137,284.88,171.137,278.785z"/>
			<path d="M230.383,340.99c-3.058-5.278-9.788-7.094-15.082-4.041c-5.278,3.053-7.088,9.799-4.041,15.082l5.521,9.562
				c2.048,3.544,5.758,5.521,9.573,5.521c1.871,0,3.771-0.475,5.51-1.479c5.278-3.053,7.088-9.799,4.041-15.082L230.383,340.99z"/>
			<path d="M202.781,293.177c-3.058-5.278-9.788-7.099-15.082-4.041c-5.278,3.053-7.088,9.799-4.041,15.082l5.521,9.562
				c2.048,3.544,5.758,5.521,9.573,5.521c1.871,0,3.771-0.475,5.51-1.474c5.278-3.053,7.088-9.799,4.041-15.088L202.781,293.177z"/>
			<path d="M215.301,317.826c1.739,1.005,3.638,1.474,5.51,1.474c3.815,0,7.525-1.976,9.573-5.521l5.521-9.562
				c3.047-5.283,1.237-12.035-4.041-15.082c-5.3-3.058-12.04-1.237-15.082,4.041l-5.521,9.562
				C208.213,308.027,210.024,314.779,215.301,317.826z"/>
			<path d="M204.26,336.944c-5.3-3.053-12.04-1.237-15.082,4.041l-5.521,9.562c-3.047,5.283-1.237,12.035,4.041,15.082
				c1.739,1.01,3.638,1.485,5.51,1.485c3.815,0,7.525-1.976,9.573-5.521l5.521-9.562
				C211.349,346.748,209.538,339.997,204.26,336.944z"/>
			<path d="M198.74,327.388c0-6.095-4.946-11.041-11.041-11.041h-11.041c-6.1,0-11.041,4.946-11.041,11.041
				s4.941,11.041,11.041,11.041h11.041C193.793,338.429,198.74,333.482,198.74,327.388z"/>
			<path d="M242.904,316.347h-11.041c-6.1,0-11.041,4.946-11.041,11.041s4.941,11.041,11.041,11.041h11.041
				c6.095,0,11.041-4.946,11.041-11.041S248.999,316.347,242.904,316.347z"/>
		</g>
	</g>
</g>
<g>
</g>
<g>
</g>
<g>
</g>
<g>
</g>
<g>
</g>
<g>
</g>
<g>
</g>
<g>
</g>
<g>
</g>
<g>
</g>
<g>
</g>
<g>
</g>
<g>
</g>
<g>
</g>
<g>
</g>
</svg>
